<svg xmlns="http://www.w3.org/2000/svg" viewBox="0 0 1200 800">
  <defs>
    <linearGradient id="sky2" x1="0" x2="0" y1="0" y2="1">
      <stop offset="0%" stop-color="#f2e5d1"/>
      <stop offset="100%" stop-color="#cab195"/>
    </linearGradient>
  </defs>
  <rect width="1200" height="800" fill="url(#sky2)"/>
  <rect x="190" y="420" width="820" height="300" rx="32" ry="32" fill="#b17d55"/>
  <rect x="240" y="470" width="220" height="180" fill="#996b46"/>
  <rect x="720" y="470" width="180" height="180" fill="#a77f56"/>
  <path d="M190 420 H1010 L1100 520 V710 H1000" fill="#895f3e" opacity="0.25"/>
  <path d="M240 470 H460 L510 420 H190 Z" fill="#d7b696"/>
  <rect x="270" y="510" width="70" height="90" rx="12" fill="#5b4029"/>
  <rect x="780" y="520" width="90" height="100" rx="14" fill="#5b4029"/>
  <path d="M430 620 C480 540 620 540 670 620" fill="#a57b55" opacity="0.4"/>
  <path d="M380 430 H590 L640 470 H420 Z" fill="#e4ceb4"/>
  <path d="M560 340 Q680 250 860 350" fill="#d4b58c" stroke="#b48a5a" stroke-width="14"/>
  <rect x="620" y="360" width="210" height="80" rx="28" fill="#f0e0c4" opacity="0.9"/>
</svg>
