<svg xmlns="http://www.w3.org/2000/svg" viewBox="0 0 1200 800">
  <defs>
    <linearGradient id="sky5" x1="0" x2="0" y1="0" y2="1">
      <stop offset="0%" stop-color="#f7efe8"/>
      <stop offset="100%" stop-color="#d9c3a0"/>
    </linearGradient>
  </defs>
  <rect width="1200" height="800" fill="url(#sky5)"/>
  <rect x="240" y="420" width="720" height="280" rx="30" fill="#d2b69b"/>
  <rect x="300" y="470" width="220" height="160" rx="24" fill="#b28b6c"/>
  <rect x="640" y="470" width="220" height="160" rx="24" fill="#c49d7f"/>
  <rect x="380" y="350" width="420" height="90" rx="26" fill="#e9d7c2"/>
  <rect x="360" y="330" width="200" height="50" rx="16" fill="#7b5e42"/>
  <rect x="640" y="330" width="200" height="50" rx="16" fill="#7f5d3f"/>
  <rect x="420" y="520" width="120" height="90" fill="#70523d"/>
  <rect x="700" y="520" width="120" height="90" fill="#7b5c41"/>
  <path d="M260 640 C340 580 460 580 540 640" fill="#8b6b4f" opacity="0.28"/>
  <path d="M580 470 C660 410 780 410 860 470" fill="#d8c0a6" opacity="0.55"/>
  <rect x="460" y="360" width="280" height="50" rx="20" fill="#c0a285"/>
</svg>
